<svg xmlns="http://www.w3.org/2000/svg" viewBox="0 0 293.29 349.45"><defs><style>.cls-1{fill:#616d70;}.cls-2{fill:#00afff;}.cls-3{font-size:36px;fill:#333;stroke:#fff;stroke-miterlimit:10;font-family:CopperplateGothic-Light, Copperplate Gothic Light;font-weight:300;}.cls-4{letter-spacing:-0.01em;}</style></defs><g id="graphics"><path class="cls-1" d="M310.57,429.62l-4-9.3H288.52l-4,9.3H274.3l18.6-43h9.29l18.6,43Zm-13-30.23-5.42,12.5h10.77Z" transform="translate(-274.3 -147.48)"/><path class="cls-1" d="M325.78,386.58h9.6v43h-9.6Z" transform="translate(-274.3 -147.48)"/><path class="cls-1" d="M380.89,400.86q0,10.35-8.19,13.37l10.9,15.39H371.78l-9.55-13.73h-6.65v13.73H346v-43h16.31q10,0,14.32,3.38T380.89,400.86ZM369.31,406c1.19-1.06,1.79-2.76,1.79-5.08s-.62-3.91-1.85-4.77-3.38-1.29-6.46-1.29h-7.21v12.75h7Q367.52,407.58,369.31,406Z" transform="translate(-274.3 -147.48)"/><path class="cls-1" d="M390.74,429.62v-43h9.61v34.48H418.7v8.56Z" transform="translate(-274.3 -147.48)"/><path class="cls-1" d="M425.72,386.58h9.6v43h-9.6Z" transform="translate(-274.3 -147.48)"/><path class="cls-1" d="M476,386.58h9.6v43H476l-20.51-27v27h-9.6v-43h9L476,414.29Z" transform="translate(-274.3 -147.48)"/><path class="cls-1" d="M527.26,386.58v8.56H505.83V404H525.1v8.19H505.83v8.93h22.11v8.5H496.22v-43Z" transform="translate(-274.3 -147.48)"/><path class="cls-1" d="M546.56,395.17a3.71,3.71,0,0,0-1.38,3,3.4,3.4,0,0,0,1.69,3c1.13.74,3.73,1.61,7.82,2.62a21.93,21.93,0,0,1,9.51,4.52q3.39,3,3.39,8.81a11.63,11.63,0,0,1-4.34,9.39q-4.34,3.6-11.42,3.6-10.23,0-18.41-7.57l5.72-7q7,6.09,12.87,6.1a6.76,6.76,0,0,0,4.16-1.14,3.68,3.68,0,0,0,1.51-3.08,3.6,3.6,0,0,0-1.6-3.08,21,21,0,0,0-6.35-2.31q-7.51-1.78-11-4.65t-3.48-9a11.13,11.13,0,0,1,4.41-9.45,17.67,17.67,0,0,1,11-3.33,26.35,26.35,0,0,1,8.62,1.48,22.91,22.91,0,0,1,7.51,4.19l-4.86,7A18.93,18.93,0,0,0,550.35,394,5.81,5.81,0,0,0,546.56,395.17Z" transform="translate(-274.3 -147.48)"/><path class="cls-2" d="M459,159a23.09,23.09,0,0,0-19.94-11.51H402.69A23.08,23.08,0,0,0,382.75,159L306.62,290.85a23.05,23.05,0,0,0,0,23l18.28,31.59A23.09,23.09,0,0,0,344.86,357h31.73a23.1,23.1,0,0,0,19.94-11.52l9.73-16.84a24.9,24.9,0,0,0,3.32-12.4V281.67a3.35,3.35,0,0,0-5.34-2.69l-53,37a3,3,0,0,1-4.35-.89l-6.17-10.57a4.26,4.26,0,0,1,.69-5.2l63.46-60.15a15.86,15.86,0,0,0,4.74-11.31V201.15c0-5.36,3.83-17.89,8.91-20.76a5.35,5.35,0,0,1,4.35-.28c5.36,2.2,9.49,15.48,9.49,21v26.68a15.89,15.89,0,0,0,4.73,11.31l58.78,60.15a4.27,4.27,0,0,1,.69,5.2l-6.18,10.57A3,3,0,0,1,486,316l-48.33-37a3.35,3.35,0,0,0-5.34,2.69v34.54a24.94,24.94,0,0,0,3.32,12.41l9.73,16.84A23.08,23.08,0,0,0,465.32,357h31.49a23.26,23.26,0,0,0,20-11.47L535.22,314a22.93,22.93,0,0,0,.06-23Z" transform="translate(-274.3 -147.48)"/><text class="cls-3" transform="translate(24.43 319.06)">G6 P<tspan class="cls-4" x="91.16" y="0">R</tspan><tspan x="118.49" y="0">OJECT</tspan></text></g></svg>